<svg width="58" height="14" viewBox="0 0 58 14" fill="none" xmlns="http://www.w3.org/2000/svg">
<path d="M14.8443 7.32362C14.6189 7.0982 14.0519 6.024 13.8479 4.40333C13.4067 0.90035 21.2007 3.39232 23.6334 4.189C24.0392 4.32188 24.0083 4.86784 23.7837 5.09924C23.2361 5.66353 21.0641 5.44507 18.8158 5.21964C18.005 5.13835 17.9764 4.54336 18.1446 4.25475C18.4927 3.65761 21.2553 3.96272 24.6692 4.61424C25.9871 4.86576 26.2796 5.66025 26.2002 6.17685C26.1208 6.69345 25.6136 7.08795 25.0423 7.29117C22.3595 8.24559 19.913 6.30066 19.5715 5.93178C19.4144 5.76221 19.4553 5.50655 19.6808 5.24953C20.2509 4.59946 23.1885 4.4204 27.2539 4.73036C28.9753 4.86161 29.9103 5.66025 30.4039 6.12049C30.8974 6.58074 30.8974 6.86252 30.5593 7.20493C28.2104 9.58344 23.9024 8.29364 22.765 7.72666C22.2515 7.47065 22.0785 6.93425 21.9624 6.58928C21.8462 6.24431 21.8462 6.01888 22.4098 5.62097C23.9986 4.49915 25.4872 4.07885 26.0824 4.10702C26.9624 4.14869 27.82 4.41869 28.4451 4.84393C29.0938 5.2853 29.3587 6.23748 29.4176 6.97694C29.6196 9.51121 23.443 7.38169 23.2415 7.18273C23.1576 7.09996 23.7726 7.04013 24.1457 7.09563C24.8306 7.1975 25.3728 7.8889 25.8561 8.7684C26.109 9.22869 26.1703 9.81698 26.1438 10.2482C26.1174 10.6794 25.9483 10.9612 25.664 11.0782C25.3796 11.1952 24.9851 11.1388 24.5565 10.7153C24.1278 10.2917 23.677 9.50274 23.4165 8.98358C23.1561 8.46442 23.0997 8.23899 23.437 8.03833C25.5421 6.78592 27.195 7.55076 27.5084 7.74886C27.6494 7.83799 27.54 8.11603 27.2855 8.28852C25.6304 9.41043 22.7104 8.57713 19.2419 7.15967C16.2754 5.94739 12.4261 6.63709 9.86361 6.5295C8.05922 6.45374 15.2183 5.04715 19.4255 5.01812C22.2834 4.9984 23.7777 5.49972 24.15 6.09488C24.3464 6.4089 23.677 6.97182 22.9939 7.28947C21.5048 7.9819 18.2821 7.72324 13.7121 7.18615C8.75834 6.60395 5.85461 5.04886 5.59417 4.5946C5.4461 4.33633 6.62993 4.14033 9.77054 4.0242C12.9111 3.90807 18.3214 3.90807 22.4328 4.24621C26.5443 4.58435 29.1931 5.26063 31.093 5.80626C32.9929 6.3519 34.0637 6.74639 34.5589 7.11869C35.0542 7.49098 34.9415 7.82913 34.0099 8.22875C33.0783 8.62837 31.3312 9.07922 28.9659 9.25512C26.6007 9.43102 23.6701 9.31831 21.146 9.06299C16.5703 8.60016 13.0939 7.49952 11.4382 6.53378C10.4788 5.97417 14.7709 5.10522 18.5716 4.87723C23.378 4.58891 26.4538 5.04545 27.0225 5.32894C27.2793 5.45694 27.3658 5.72514 27.0857 5.95398C26.8056 6.18283 26.1293 6.40825 23.1885 6.41167C20.2477 6.41508 15.0629 6.18966 12.2511 6.04535C9.43923 5.90104 9.15745 5.84469 9.85764 5.59023C10.5578 5.33577 12.2485 4.88492 17.2617 4.56813C22.2749 4.25133 30.5593 4.08226 35.1652 4.0797C39.771 4.07714 40.4473 4.24621 40.7675 4.53056C41.0877 4.8149 41.0314 5.2094 40.7769 5.52534C40.5225 5.84127 40.0716 6.0667 36.7397 6.09829C33.4079 6.12989 27.2086 5.96082 21.9299 5.47922C16.6512 4.99763 12.4808 4.20864 10.2197 3.74583C7.95859 3.28302 7.73316 3.17031 10.4349 2.88682C13.1366 2.60333 18.7722 2.15247 22.9435 2.03293C27.1147 1.91338 29.6508 2.13881 31.4644 2.39583C33.2781 2.65285 34.2925 2.93464 34.8433 3.19251C35.394 3.45039 35.4504 3.67581 35.3949 3.90466C35.2754 4.39712 34.0944 4.98568 30.5303 5.66793C27.9001 6.17141 23.472 6.12476 20.024 6.09915C14.2038 6.05591 11.5449 5.55949 12.1332 5.24867C12.8871 4.8504 14.8068 4.54336 17.9346 4.3111C21.0624 4.07885 25.4018 4.07885 28.539 4.19156C33.488 4.36937 35.7322 4.93103 36.3299 5.32809C36.5843 5.49708 36.5331 5.83786 36.0259 6.29298C35.5187 6.7481 34.5043 7.36802 32.4882 7.80009C30.4722 8.23216 27.4853 8.45759 24.2559 8.48918C21.0265 8.52077 17.6451 8.35171 14.8324 8.011C9.84257 7.40659 6.82634 6.30237 5.43279 5.70551C4.87557 5.46684 4.65917 5.27771 4.57122 4.99336C4.48327 4.70902 4.53962 4.31452 5.24493 3.91405C7.16335 2.82478 10.4998 2.54356 14.5002 2.31557C16.6945 2.19052 19.2333 2.31301 21.5824 2.53929C26.0392 2.96861 29.0104 3.90465 30.263 4.58606C30.7309 4.84058 30.6139 5.26746 30.1904 5.55437C29.1006 6.29262 27.1506 6.41167 24.8809 6.58245C23.6279 6.67673 22.1605 6.64051 19.4895 6.27419C16.8185 5.90788 12.9863 5.17524 10.7867 4.71329C8.58705 4.25133 8.1362 4.08226 8.3548 3.85428C8.57339 3.62629 9.4751 3.34451 11.743 3.19934C14.011 3.05418 17.6178 3.05418 21.2511 3.56139C24.8844 4.0686 28.4348 5.08302 30.4047 5.69014C32.3747 6.29725 32.6564 6.46632 32.2944 6.80702C31.9324 7.14772 30.9179 7.65493 29.0146 7.88804C27.1113 8.12115 24.3498 8.0648 21.0111 7.66945C17.6724 7.2741 13.8402 6.54146 11.5842 6.07951C9.32822 5.61755 8.76466 5.44848 8.41798 5.24867C8.0713 5.04886 7.95859 4.82344 10.183 4.62277C12.4073 4.42211 16.9722 4.25304 21.9444 4.4759C26.9166 4.69877 32.1578 5.31869 34.8014 5.83529C37.4451 6.3519 37.3323 6.74639 36.4007 7.09051C35.4692 7.43463 33.7221 7.71641 30.9905 7.88975C28.2589 8.06309 24.5957 8.11945 20.9052 7.89487C17.2147 7.6703 13.6079 7.16309 14.1168 6.81727C14.6257 6.47144 19.3597 6.30237 23.4891 6.35617C27.6185 6.40996 30.9999 6.69175 33.4181 6.9778C37.205 7.42575 38.7515 8.00503 38.8668 8.34573C39.02 8.79872 37.2828 9.02969 33.0416 9.31403C29.7637 9.53379 24.179 9.48567 21.0513 9.45834C17.9235 9.43102 17.4162 9.31831 17.0704 9.11935C16.7246 8.92039 16.5555 8.63861 16.5812 8.2962C16.6068 7.95379 16.8322 7.55929 17.7655 7.15882C18.6988 6.75835 20.3331 6.36385 24.7255 6.10427C29.1179 5.84469 36.2189 5.73198 41.8212 6.04023C47.4236 6.34848 51.3122 7.08112 53.3154 7.59943C55.3186 8.11774 55.3186 8.39952 54.9241 8.6574C54.5296 8.91527 53.7407 9.14069 49.4174 9.22864C45.0942 9.3166 37.2606 9.26024 32.6334 9.11849C26.8138 8.94022 25.4343 8.34999 25.3753 8.00929C25.2716 7.40931 27.1881 7.21262 30.3014 6.75749C35.9517 5.9315 40.058 6.69516 40.7974 7.14943C41.1113 7.34223 41.1987 7.6037 41.0596 7.80436C39.8844 9.4986 35.6365 8.63349 32.0083 8.20996C29.7741 7.94914 26.8022 7.16651 25.2635 6.64905C23.7248 6.1316 23.7248 5.79345 24.3165 5.47837C25.9697 4.59812 28.8891 4.42211 32.548 4.2223C34.6261 4.10882 37.165 4.30427 39.4295 4.58777C41.694 4.87126 43.6101 5.32211 44.4 5.61072C45.1898 5.89934 44.7953 6.01205 43.9158 6.07012C41.6879 6.2172 39.4449 5.95911 38.474 5.64659C36.1876 4.91059 46.182 5.7815 48.2254 6.38093C48.9738 6.60048 42.9987 6.13501 39.9444 5.70721C35.319 5.05937 33.6316 4.08055 33.5445 3.73985C33.4974 3.55558 33.9646 3.39915 36.0267 3.34023C38.0889 3.28131 41.8648 3.33767 44.3171 3.45124C46.7695 3.56481 47.7839 3.73388 46.9821 3.96187C46.1803 4.18986 43.5316 4.47164 40.7018 4.6168C37.872 4.76196 34.9415 4.76196 32.9527 4.84649C30.964 4.93103 30.006 5.1001 27.9626 5.21537C22.825 5.50521 19.0626 5.10693 18.096 4.48188C17.6805 4.21324 17.4675 3.96955 17.8867 3.76888C21.3469 2.11282 25.0825 4.8149 26.4197 5.58169C26.9548 5.88855 27.0242 6.29213 26.7159 6.60721C25.8769 7.4649 23.0041 7.71983 18.1566 8.00503C15.2296 8.17723 11.3366 7.95209 8.57253 7.66859C4.2471 7.22496 2.21192 6.07524 2.00699 5.3648C1.8858 4.94468 3.4364 4.82344 5.96134 4.79184C8.48629 4.76025 12.3749 4.92932 15.1108 5.24184C19.3531 5.72645 21.2724 6.80788 21.9837 7.43292C22.2748 7.6887 22.3005 7.94525 22.1041 8.11774C21.5727 8.58448 20.3161 8.51906 17.2344 8.18092C14.8198 7.91599 10.7149 7.16651 8.03202 6.59269C5.3491 6.01888 4.22197 5.56803 5.24749 5.33577C6.27301 5.10351 9.48534 5.10351 15.3106 5.8925C21.1358 6.6815 29.4766 8.25948 33.407 9.24146C37.3375 10.2234 36.6048 10.5616 35.5793 10.8485C34.5538 11.1354 33.2576 11.3608 30.561 11.5051C27.8644 11.6494 23.8068 11.7058 21.2092 11.5376C18.6117 11.3693 17.5973 10.9748 17.0465 10.6026C16.4958 10.2303 16.4394 9.89212 16.6358 9.60521C17.1021 8.92404 19.551 8.69155 23.3824 8.51992C27.6073 8.33066 30.7745 9.1424 31.7744 9.65388C32.4415 9.99514 29.258 10.2268 26.4231 9.94506C22.3917 9.54435 19.8567 8.34999 19.5143 7.95294C19.3602 7.77428 19.6227 7.44316 19.8507 7.24165C20.7782 6.4218 21.9572 6.64051 21.9333 6.58415C21.6276 6.5278 20.7259 6.41508 18.5989 6.27248C16.4719 6.12989 13.1468 5.96082 9.72101 5.78662" stroke="white" stroke-width="4" stroke-linecap="round" stroke-linejoin="round"/>
<path d="M35.0428 6.67391C34.7452 6.67391 34.536 6.59949 34.4235 6.43092C34.3625 6.33951 34.311 6.22513 34.3102 6.1025C34.3093 5.97988 34.3652 5.84964 34.4311 5.76394C34.64 5.49253 35.1714 5.50911 37.1396 5.55534C38.2848 5.58224 38.6128 5.84682 38.7163 5.94943C38.7794 6.01202 38.7267 6.18228 38.6241 6.31477C38.1747 6.89499 37.1345 6.73029 36.4447 6.59949C36.328 6.57735 36.2843 6.46869 36.3486 6.38384C36.8998 5.65615 38.2542 5.94098 38.6018 5.99679C38.7364 6.0184 38.7447 6.16424 38.7171 6.26826C38.6895 6.37228 38.6151 6.46531 38.5116 6.52253C38.0037 6.80344 37.2631 6.54311 36.9606 6.31787C36.885 6.26161 36.8481 6.14958 36.8845 6.03654C37.1292 5.27585 38.8507 5.19 39.682 5.17957C40.1749 5.17339 40.6041 5.39522 40.8483 5.55449C40.9551 5.62421 40.9807 5.73237 40.9162 5.82681C40.5644 6.34151 39.7821 6.26009 38.7115 6.26995C38.157 6.27506 37.9002 6.11012 37.8525 6.07291C37.4482 5.75709 38.8936 5.92181 39.2045 6.07178C39.2829 6.10957 39.3266 6.20258 39.3646 6.28743C39.4027 6.37228 39.4213 6.46531 39.3564 6.54114C38.9073 7.06641 37.8269 6.69308 37.3654 6.65531C36.9286 6.61955 36.6226 6.24261 36.4349 6.05514C36.349 5.96944 36.3215 5.86768 36.3582 5.78255C36.5742 5.28079 37.483 5.24638 37.9619 5.18944C38.1427 5.16794 38.199 5.31855 38.1626 5.43187C38.1262 5.54519 37.996 5.65682 37.8638 5.72363C37.2559 6.03084 36.3238 5.69742 35.8713 5.49078C35.7563 5.43826 35.6281 5.37831 35.7377 5.34955C36.1866 5.23185 36.6209 5.37662 36.6776 5.4984C36.7054 5.55821 36.6226 5.63878 36.5194 5.68642C36.021 5.77184 35.4601 5.69742 35.0716 5.54688C35.0609 5.50911 35.1353 5.4719 35.212 5.43356" stroke="#EFDA3B" stroke-width="4" stroke-linecap="round" stroke-linejoin="round"/>
<path d="M48.0217 4.96753C48.2551 5.02234 48.7542 5.18843 48.9896 5.34061C49.2612 5.51617 49.4601 5.64518 49.6542 5.79051C49.8948 5.97062 50.1934 6.07453 50.4226 6.15093C50.6791 6.23644 50.1402 5.67425 49.9739 5.40456C49.8273 5.16685 49.5041 5.00988 49.186 4.8712C48.847 4.72337 48.4934 4.70469 48.3547 4.68393C48.2177 4.66342 48.7401 4.84213 49.1136 4.99473C49.5615 5.17775 50.0265 5.29888 50.2702 5.45833C50.4699 5.58897 50.8154 5.69999 51.1073 5.8665C51.5373 6.11177 51.9515 6.32367 52.311 6.44803C52.5644 6.53566 52.7819 6.71066 53.0037 6.87011C53.213 7.02066 53.4463 7.1126 53.6336 7.24382C53.8441 7.39131 54.0558 7.44479 54.0909 7.45206C53.9753 7.3634 53.7942 7.25171 53.5669 7.12091C53.4218 7.03122 53.2162 6.89419 53.0045 6.75302" stroke="white" stroke-width="4" stroke-linecap="round" stroke-linejoin="round"/>
<path d="M50.7623 5.25817C50.6797 5.17554 50.377 4.98246 50.0851 4.80889C49.8042 4.64188 49.5042 4.60792 49.1861 4.51138C48.5258 4.31096 48.3 4.19269 47.9126 4.06148C47.5821 3.94954 47.3309 3.90203 46.8679 3.81899C46.5445 3.76097 46.155 3.69442 45.9598 3.65269C45.6663 3.58993 46.7197 3.9012 46.9414 3.9639C47.31 4.06812 48.2519 4.35712 48.6922 4.49664C48.955 4.57991 49.3481 4.74495 49.6541 4.92537C49.9477 5.09847 50.235 5.21582 50.5053 5.33395C50.7502 5.44099 51.0929 5.548 51.4186 5.70745C51.5637 5.76973 51.6754 5.83908 51.7651 5.91506C51.8137 5.94994 51.8685 5.97735 52.0496 6.04711" stroke="white" stroke-width="4" stroke-linecap="round" stroke-linejoin="round"/>
</svg>
